<?xml version="1.0" encoding="UTF-8"?>
<svg id="Camada_1" xmlns="http://www.w3.org/2000/svg" version="1.1" viewBox="0 0 493 140">
  <!-- Generator: Adobe Illustrator 29.5.1, SVG Export Plug-In . SVG Version: 2.1.0 Build 141)  -->
  <defs>
    <style>
      .st0 {
        fill: #73a533;
      }

      .st1 {
        fill: #8d9092;
      }
    </style>
  </defs>
  <path class="st0" d="M53.2,25.38C27,24.18,4.8,45.28,3.5,72.48c-.5,11.9,3.1,23,9.5,31.9-5.7-8.7-8.5-19.6-7.1-31.1,3-24.7,24.1-42.4,47.2-39.7,23.1,2.8,39.4,25,36.5,49.7-3,24.7-24.1,42.4-47.2,39.6-.8-.1-1.6-.2-2.4-.4,2.8.7,5.8,1.1,8.8,1.3,26.2,1.2,48.4-19.9,49.6-47,1.3-27.2-19-50.3-45.2-51.4Z"/>
  <path class="st1" d="M169.3,116.08h-44.4c-13.6,0-20.5-4.4-20.5-12.9v-26.5c0-4.4,1.8-7.8,5.4-10,3.5-2.2,8.8-3.3,15.9-3.3h30.8c1.4,0,3.2.6,3.2,3.7,0,2.9-1.7,3.5-3.2,3.5h-27.9c-10.2,0-15.4,2.1-15.4,6.1v9.6h34.8c1.4,0,3.2.6,3.2,3.7s-1.7,3.6-3.2,3.6h-34.9v9.2c0,4.1,3.9,6.1,12,6.1h43.2l15.7-13.7-17.7-15.6c-.4-.3-.8-.7-.9-1.1-.2-.4-.3-.8-.3-1.2,0-.8.3-1.6,1-2.2s1.4-.9,2.3-.9c.8,0,1.6.3,2.3.9l18,15.6,18-15.5c.7-.6,1.5-1,2.4-1s1.7.3,2.4.9,1,1.4,1,2.2-.4,1.6-1.3,2.3l-17.7,15.5,18.1,15.8c.7.6,1.1,1.2,1.1,1.9,0,.4-.1.9-.3,1.2-.2.4-.5.7-.8,1s-.7.5-1.2.6c-.4.2-.9.2-1.3.2s-.7-.1-1.1-.2c-.4-.1-.8-.4-1.1-.6l-18.1-15.4-16.9,15.4c-.1.1-.2.1-.3.2h-.1c-.5.6-1.2.9-2.2.9Z"/>
  <path class="st1" d="M237,116.28c-3.6,0-4.3-2-4.3-3.8v-42h-17.2c-1.5,0-3.4-.6-3.4-3.7,0-2.3,1.2-3.5,3.4-3.5h45.5c2.1,0,3.2,1.2,3.2,3.5,0,3.1-1.8,3.7-3.2,3.7h-19.5v42.1c-.1,1.7-.9,3.7-4.5,3.7Z"/>
  <path class="st1" d="M277.9,88.28h34c7.2,0,10.8-1.7,10.8-4.9v-6.7c0-4.2-4-6.2-12.1-6.2h-32.7v17.8h0ZM323.6,116.28c-.5,0-1.1-.2-1.7-.5l-43.9-20.6v17.3c0,1.7-.7,3.8-4.3,3.8s-4.5-2-4.5-3.8v-46.2c0-1.9,1.1-3,3-3h37.2c14.6,0,21.9,4.6,21.9,13.8v5.5c0,8.5-6.8,12.9-20.2,12.9h-16.4l30.3,13.3c.8.3,1.4.8,1.8,1.4s.6,1.2.6,1.9c0,1.1-.4,2-1.1,2.9-.7.9-1.6,1.3-2.7,1.3Z"/>
  <path class="st1" d="M357.4,70.48c-8.6,0-12.8,2.4-12.8,7.3v24.1c0,4.6,4.2,6.9,12.8,6.9h18c8.4,0,12.5-2.2,12.5-6.9v-24.2c0-4.9-3.9-7.3-12-7.3,0,.1-18.5.1-18.5.1ZM373.4,115.98h-14.4c-15.4,0-23.2-4.7-23.2-13.9v-24.8c0-9.3,7.8-14,23.2-14h14.4c15.4,0,23.3,4.7,23.3,14v24.6c0,9.4-7.8,14.1-23.3,14.1Z"/>
  <path class="st1" d="M482.9,116.28c-3.5,0-4.2-2-4.2-3.8v-36.1l-27.9,37c-1.5,1.9-3.4,2.9-5.7,2.9-1.3,0-2.4-.2-3.3-.7s-1.8-1.2-2.5-2.1l-28.4-36.9v36c0,1.7-.7,3.8-4.2,3.8s-4.3-2-4.3-3.8v-44.7c0-3.2,1.7-4.9,4.8-4.9,2.2,0,4,1,5.5,2.9l32.5,41.5,32-42c.6-.8,1.3-1.4,2.3-1.8.9-.4,1.9-.6,2.9-.6,3.3,0,5,1.8,5,5.1v44.5c-.1,1.7-.8,3.7-4.5,3.7Z"/>
  <path class="st1" d="M54.7,120.38h0c-4.4,0-6.1-3.6-6.1-3.8L16.2,51.58c-.3-.6-.6-2.1,1-3.1.5-.4,1.1-.6,1.6-.6,1.6,0,2.5,1.7,2.6,1.8l33.5,51.7L110.4,17.28c0-.1.8-1.1,2-1.1.5,0,1,.2,1.4.5,1.3.8,1.1,2.2.8,2.7l-53.9,97.3c0,.1-1.9,3.7-6,3.7Z"/>
</svg>